name GIL06_xslow1.mot
datacolumns 153
datarows 4
range 0.37500000 0.40000001
endheader

                time	           pelvis_tx	           pelvis_ty	           pelvis_tz	         pelvis_tilt	         pelvis_list	     pelvis_rotation	       hip_flexion_r	     hip_adduction_r	      hip_rotation_r	        knee_angle_r	       ankle_angle_r	    subtalar_angle_r	         mtp_angle_r	       hip_flexion_l	     hip_adduction_l	      hip_rotation_l	        knee_angle_l	       ankle_angle_l	    subtalar_angle_l	         mtp_angle_l	    lumbar_extension	      lumbar_bending	     lumbar_rotation	     ground_force_vx	     ground_force_vy	     ground_force_vz	     ground_force_px	     ground_force_py	     ground_force_pz	     ground_force_vx	     ground_force_vy	     ground_force_vz	     ground_force_px	     ground_force_py	     ground_force_pz	     ground_torque_x	     ground_torque_y	     ground_torque_z	     ground_torque_x	     ground_torque_y	     ground_torque_z	    ground_marker_px	    ground_marker_py	    ground_marker_pz	    ground_marker_px	    ground_marker_py	    ground_marker_pz	    ground_marker_px	    ground_marker_py	    ground_marker_pz	    ground_marker_px	    ground_marker_py	    ground_marker_pz	    ground_marker_px	    ground_marker_py	    ground_marker_pz	    ground_marker_px	    ground_marker_py	    ground_marker_pz	    ground_marker_px	    ground_marker_py	    ground_marker_pz	    ground_marker_px	    ground_marker_py	    ground_marker_pz	    ground_marker_px	    ground_marker_py	    ground_marker_pz	    ground_marker_px	    ground_marker_py	    ground_marker_pz	    ground_marker_px	    ground_marker_py	    ground_marker_pz	    ground_marker_px	    ground_marker_py	    ground_marker_pz	    ground_marker_px	    ground_marker_py	    ground_marker_pz	    ground_marker_px	    ground_marker_py	    ground_marker_pz	    ground_marker_px	    ground_marker_py	    ground_marker_pz	    ground_marker_px	    ground_marker_py	    ground_marker_pz	    ground_marker_px	    ground_marker_py	    ground_marker_pz	    ground_marker_px	    ground_marker_py	    ground_marker_pz	    ground_marker_px	    ground_marker_py	    ground_marker_pz	    ground_marker_px	    ground_marker_py	    ground_marker_pz	    ground_marker_px	    ground_marker_py	    ground_marker_pz	    ground_marker_px	    ground_marker_py	    ground_marker_pz	    ground_marker_px	    ground_marker_py	    ground_marker_pz	    ground_marker_px	    ground_marker_py	    ground_marker_pz	    ground_marker_px	    ground_marker_py	    ground_marker_pz	    ground_marker_px	    ground_marker_py	    ground_marker_pz	    ground_marker_px	    ground_marker_py	    ground_marker_pz	    ground_marker_px	    ground_marker_py	    ground_marker_pz	    ground_marker_px	    ground_marker_py	    ground_marker_pz	    ground_marker_px	    ground_marker_py	    ground_marker_pz	    ground_marker_px	    ground_marker_py	    ground_marker_pz	    ground_marker_px	    ground_marker_py	    ground_marker_pz	    ground_marker_px	    ground_marker_py	    ground_marker_pz	    ground_marker_px	    ground_marker_py	    ground_marker_pz	    ground_marker_px	    ground_marker_py	    ground_marker_pz	    ground_marker_px	    ground_marker_py	    ground_marker_pz	    ground_marker_px	    ground_marker_py	    ground_marker_pz	
          0.37500000	          0.28632915	          0.85206020	         -0.26577011	         -3.38747978	          2.20756960	         -3.82787156	          2.58523941	         -7.05992651	          0.43904880	        -46.66775131	        -19.95707321	          0.00000000	          0.00000000	          9.95389366	          5.18231964	         -1.40119541	         -1.84808171	         -6.13572407	          0.00000000	          0.00000000	        -11.33783245	         -2.89550114	          5.81284809	          0.00000000	          0.00000000	          0.00000000	          0.58526129	          0.00000000	         -0.23212460	        -50.16365663	        794.36932964	         27.71257020	          0.24450975	          0.00000000	         -0.30732822	          0.00000000	          0.00000000	          0.00000000	          0.00000000	          1.36246021	          0.00000000	          0.17935970	          0.77475512	         -0.27681282	          0.15406431	          0.77692175	         -0.19907294	          0.16566871	          0.77993196	         -0.35423961	          0.14503695	          0.39617097	         -0.15993749	          0.20408267	          0.42168090	         -0.32557189	         -0.11991624	          0.15425198	         -0.16778991	          0.23140307	          0.05860541	         -0.30121097	          0.28632915	          0.85206020	         -0.26577011	          0.27706066	          0.84965599	         -0.14183787	          0.29559764	          0.85446447	         -0.38970235	          0.03883603	          0.92078996	         -0.24808344	          0.03879362	          0.92032903	         -0.30249834	          0.14042011	          0.40357462	         -0.08897186	          0.20839110	          0.41644713	         -0.39674982	          0.16281892	          0.39002144	         -0.23528422	          0.19443516	          0.40968859	         -0.24071604	         -0.12724477	          0.16107161	         -0.13061416	          0.21566403	          0.05500233	         -0.33726025	         -0.11248694	          0.15899229	         -0.20395733	          0.22540286	          0.07798037	         -0.26138020	          0.07285298	          1.35044754	         -0.28142294	          0.19776610	          1.27602792	         -0.24404724	          0.19478522	          1.27568102	         -0.32638529	          0.17853686	          1.27164602	         -0.29698789	          0.22578542	          1.19465017	         -0.29691675	          0.30355275	          0.55961072	         -0.08249862	          0.36743870	          0.60786998	         -0.33351442	          0.26847884	          0.57865083	         -0.11000776	          0.32005021	          0.61946195	         -0.34641463	          0.24702606	          0.50344753	         -0.11411128	          0.30870050	          0.54732662	         -0.33840540	          0.04157715	          0.18930314	         -0.13529357	          0.20386419	          0.15579158	         -0.41243330	          0.00799585	          0.22705169	         -0.14566264	          0.20357805	          0.17047751	         -0.36786804	         -0.08791302	          0.05199182	         -0.17129427	          0.33509356	          0.04676448	         -0.31268826	
          0.38333336	          0.29014921	          0.85193026	         -0.26687446	         -3.35025978	          2.27339149	         -3.83512974	          3.46578312	         -7.39131880	          0.71886677	        -48.33754730	        -21.34335518	          0.00000000	          0.00000000	          9.60779953	          5.36171865	         -1.63571024	         -1.76183331	         -5.91634893	          0.00000000	          0.00000000	        -11.55093479	         -2.60059214	          5.53403044	          0.00000000	          0.00000000	          0.00000000	          0.58611615	          0.00000000	         -0.23206421	        -49.22634678	        800.18487993	         28.38284367	          0.24564003	          0.00000000	         -0.30781891	          0.00000000	          0.00000000	          0.00000000	          0.00000000	          1.39584229	          0.00000000	          0.18319616	          0.77458882	         -0.27805483	          0.15790443	          0.77663499	         -0.20031449	          0.16957302	          0.77981931	         -0.35547286	          0.15475906	          0.39547640	         -0.15889943	          0.20591146	          0.42183587	         -0.32625097	         -0.11307569	          0.15734810	         -0.16732344	          0.23171246	          0.05856824	         -0.30120492	          0.29014921	          0.85193026	         -0.26687446	          0.28082883	          0.84938675	         -0.14294027	          0.29946959	          0.85447383	         -0.39080864	          0.04257543	          0.92040288	         -0.24921341	          0.04255401	          0.92017263	         -0.30360219	          0.15032434	          0.40322113	         -0.08795859	          0.20994566	          0.41643491	         -0.39743248	          0.17227685	          0.38824806	         -0.23315211	          0.19778813	          0.40920308	         -0.24130355	         -0.12042896	          0.16430464	         -0.13017797	          0.21587257	          0.05496082	         -0.33720955	         -0.10411115	          0.16076390	         -0.20341858	          0.22616340	          0.07819390	         -0.26146060	          0.07700934	          1.35043240	         -0.28247035	          0.20127285	          1.27584183	         -0.24519838	          0.19882603	          1.27592146	         -0.32717308	          0.18246795	          1.27150607	         -0.29802781	          0.22953014	          1.19470036	         -0.29811651	          0.31148347	          0.56170881	         -0.08284450	          0.37044686	          0.60699260	         -0.33511686	          0.27590302	          0.57988030	         -0.11029812	          0.32276124	          0.61856151	         -0.34791297	          0.25546405	          0.50380534	         -0.11360213	          0.31157541	          0.54702091	         -0.33979413	          0.04893898	          0.19021767	         -0.13429648	          0.20429502	          0.15570815	         -0.41274732	          0.01799687	          0.22889473	         -0.14597432	          0.20434643	          0.17042752	         -0.36820582	         -0.08472697	          0.05371814	         -0.17098261	          0.33519700	          0.04667124	         -0.31274685	
          0.39166668	          0.29388905	          0.85182291	         -0.26787534	         -3.30444813	          2.33138871	         -3.86439848	          4.36612129	         -7.68726540	          1.03187633	        -49.99834061	        -22.65982819	          0.00000000	          0.00000000	          9.24750519	          5.52261305	         -1.86295366	         -1.65758550	         -5.70641088	          0.00000000	          0.00000000	        -11.70857811	         -2.43448377	          5.39807510	          0.00000000	          0.00000000	          0.00000000	          0.58680328	          0.00000000	         -0.23198601	        -48.02800916	        806.02846344	         28.92302013	          0.24696971	          0.00000000	         -0.30830377	          0.00000000	          0.00000000	          0.00000000	          0.00000000	          1.44082874	          0.00000000	          0.18696238	          0.77443486	         -0.27921194	          0.16165248	          0.77636868	         -0.20147929	          0.17343642	          0.77969265	         -0.35662600	          0.16458051	          0.39495325	         -0.15791541	          0.20766243	          0.42198920	         -0.32688192	         -0.10598007	          0.16046740	         -0.16686225	          0.23201993	          0.05854360	         -0.30122110	          0.29388905	          0.85182291	         -0.26787534	          0.28447461	          0.84916729	         -0.14392526	          0.30330348	          0.85447854	         -0.39182541	          0.04624020	          0.91999781	         -0.25037497	          0.04622851	          0.92000741	         -0.30472514	          0.16032857	          0.40302038	         -0.08699932	          0.21144913	          0.41643244	         -0.39806503	          0.18280397	          0.38678503	         -0.23198950	          0.19784167	          0.41013810	         -0.24325767	         -0.11335267	          0.16755806	         -0.12974598	          0.21607339	          0.05493613	         -0.33717862	         -0.09266182	          0.16600016	         -0.20327429	          0.22622916	          0.07828721	         -0.26143062	          0.08094122	          1.35044003	         -0.28346527	          0.20478225	          1.27570057	         -0.24637097	          0.20263967	          1.27605057	         -0.32843110	          0.18633085	          1.27136707	         -0.29906836	          0.23314348	          1.19469953	         -0.29948655	          0.31940928	          0.56392670	         -0.08321843	          0.37343001	          0.60611498	         -0.33658218	          0.28319433	          0.58115059	         -0.11067215	          0.32581016	          0.61792606	         -0.34930298	          0.26424038	          0.50457841	         -0.11347336	          0.31358320	          0.54660565	         -0.34141198	          0.05654085	          0.19130073	         -0.13334255	          0.20468819	          0.15566070	         -0.41303298	          0.03513600	          0.23122317	         -0.14467576	          0.20465417	          0.17053774	         -0.36829725	         -0.08116619	          0.05563594	         -0.17062017	          0.33529946	          0.04660130	         -0.31280711	
          0.40000001	          0.29755378	          0.85174948	         -0.26877803	         -3.24770164	          2.37761807	         -3.91453743	          5.28266335	         -7.94045258	          1.37104762	        -51.64640427	        -23.87180710	          0.00000000	          0.00000000	          8.86813736	          5.66222572	         -2.07347274	         -1.53473914	         -5.50117731	          0.00000000	          0.00000000	        -11.74243450	         -2.55103564	          5.56202221	          0.00000000	          0.00000000	          0.00000000	          0.58736285	          0.00000000	         -0.23188831	        -46.69584513	        810.63355943	         29.16100136	          0.24835298	          0.00000000	         -0.30875110	          0.00000000	          0.00000000	          0.00000000	          0.00000000	          1.48940271	          0.00000000	          0.19066817	          0.77429986	         -0.28027642	          0.16531932	          0.77613270	         -0.20256299	          0.17726387	          0.77955306	         -0.35769534	          0.17450477	          0.39460790	         -0.15700261	          0.20932686	          0.42214769	         -0.32746291	         -0.09863884	          0.16358291	         -0.16642432	          0.23230766	          0.05853051	         -0.30126151	          0.29755378	          0.85174948	         -0.26877803	          0.28800762	          0.84901595	         -0.14479509	          0.30709997	          0.85448301	         -0.39276096	          0.04983224	          0.91957909	         -0.25156090	          0.04981455	          0.91983181	         -0.30586609	          0.17043202	          0.40297550	         -0.08611082	          0.21290149	          0.41644713	         -0.39864561	          0.19464977	          0.38602877	         -0.23196426	          0.20009863	          0.40961918	         -0.24530171	         -0.10602649	          0.17080489	         -0.12933639	          0.21625055	          0.05492818	         -0.33717033	         -0.08552225	          0.16806884	         -0.20269716	          0.22595403	          0.07836942	         -0.26138332	          0.08464843	          1.35037315	         -0.28430593	          0.20880495	          1.27543044	         -0.24763808	          0.20648175	          1.27572691	         -0.32957742	          0.19011624	          1.27124131	         -0.30008650	          0.23700863	          1.19438028	         -0.30070564	          0.32731718	          0.56626135	         -0.08362380	          0.37637672	          0.60523373	         -0.33788544	          0.29045615	          0.58248919	         -0.11072228	          0.32898653	          0.61782998	         -0.34984618	          0.27370507	          0.50587630	         -0.11362956	          0.31602597	          0.54613340	         -0.34283164	          0.06438679	          0.19254053	         -0.13244700	          0.20503533	          0.15564449	         -0.41328892	          0.04217537	          0.23271650	         -0.14436956	          0.20471208	          0.17087199	         -0.36828458	         -0.07716301	          0.05771248	         -0.17022580	          0.33540213	          0.04655689	         -0.31287467	
